                  <svg width="484" height="431" viewBox="0 0 484 431" fill="none" xmlns="http://www.w3.org/2000/svg">
                    <path
                      d="M349.013 23.5693C354.365 25.3252 360.015 25.0453 365.511 25.8766C373.544 27.0811 379.618 30.9321 383.324 38.0065C390.263 51.2476 396.591 64.7856 401.613 78.8834C403.742 84.8636 401.765 87.4168 394.564 87.8918C386.387 88.4347 378.184 88.528 369.99 88.7994C324.473 90.3263 279.296 95.0425 234.313 102.125C192.579 108.699 151.601 118.429 110.953 129.761C107.025 130.855 102.996 131.746 98.95 132.204C89.7805 133.248 85.3781 130.703 81.4338 122.297C77.8881 114.747 75.5977 106.731 73.0021 98.8427C70.627 91.6156 68.2267 84.3886 66.1824 77.0597C63.9176 68.9335 66.1822 63.7338 73.6807 59.8318C83.003 54.9799 93.2329 52.6133 103.293 49.9328C139.377 40.3137 176.208 34.7577 213.217 30.2111C232.006 27.9039 250.794 25.6984 269.685 24.4006C270.279 24.3582 270.779 24.231 270.974 23.5863H291.332C297.55 24.9944 303.776 24.9859 309.994 23.5863H329.503C334.024 24.9689 338.554 24.9689 343.075 23.5863C345.052 23.5693 347.028 23.5693 349.013 23.5693Z"
                      fill="#141414" />
                    <path
                      d="M4.89228 212.657C4.54807 203.038 8.83245 196.144 17.0119 191.443C27.8001 185.238 39.6392 181.588 51.3151 177.584C107.666 158.254 164.994 142.566 223.6 131.66C269.271 123.154 315.141 116.107 361.501 112.774C384.671 111.107 407.896 110.029 431.149 111.46C446.013 112.375 451.71 116.288 456.393 130.292C461.466 145.455 467.961 160.039 473.767 174.903C478.649 187.394 476.412 191.715 463.269 195.048C447.471 199.052 431.284 201.018 415.233 203.654C377.597 209.822 340.259 217.422 303.094 225.918C250.974 237.83 198.971 250.258 147.666 265.412C118.046 274.162 88.8247 284.108 59.9112 294.95C54.5502 296.968 48.9953 298.428 43.3348 299.307C33.7966 300.775 27.6462 297.731 23.6153 288.836C19.8019 280.43 18.0899 271.336 15.7529 262.468C12.0301 248.346 7.88135 234.324 5.68929 219.84C5.32697 217.449 5.15497 215.049 4.89228 212.657V212.657Z"
                      fill="#141414" />
                    <path
                      d="M218.435 407.724C208.389 408.122 201.885 402.977 197.691 394.417C193.443 385.721 190.871 376.401 188.262 367.134C182.483 346.645 172.709 327.641 166.242 307.414C165.879 306.264 165.417 305.15 165.046 304.008C160.553 290.122 165.209 279.941 179.113 275.593C192.175 271.508 205.563 268.446 218.815 264.986C261.37 253.863 303.979 242.984 346.915 233.437C373.527 227.522 400.321 222.404 427.042 216.987C429.841 216.416 432.722 216.163 435.584 216.018C444.534 215.547 450.875 219.469 454.86 227.495C460.105 238.056 463.565 249.297 467.27 260.421C470.884 271.263 474.933 281.988 477.541 293.157C480.295 304.968 477.976 310.322 467.007 315.358C448.383 323.909 428.863 330.213 409.787 337.632C356.045 358.52 302.24 379.227 248.444 399.952C238.752 403.693 228.987 407.307 218.435 407.724Z"
                      fill="#141414" />
                  </svg>