                <svg width="26" height="26" viewBox="0 0 26 26" fill="none" xmlns="http://www.w3.org/2000/svg">
                  <path
                    d="M19.8394 14.2056C16.825 14.2056 14.3726 16.658 14.3726 19.6724C14.3726 22.6868 16.825 25.1392 19.8394 25.1392C22.8537 25.1392 25.3062 22.6867 25.3062 19.6724C25.3061 16.6579 22.8537 14.2056 19.8394 14.2056ZM19.8394 24.0741C17.4122 24.0741 15.4375 22.0994 15.4375 19.6723C15.4375 17.2451 17.4122 15.2705 19.8394 15.2705C22.2665 15.2705 24.2412 17.2451 24.2412 19.6723C24.2411 22.0995 22.2665 24.0741 19.8394 24.0741Z"
                    fill="black" />
                  <path
                    d="M21.5036 16.9728C21.2533 16.8185 20.9252 16.8963 20.7709 17.1467L18.0012 21.6398C17.8468 21.8901 17.9246 22.2181 18.1751 22.3725C18.2622 22.4261 18.3586 22.4518 18.4539 22.4518C18.6326 22.4518 18.8072 22.3619 18.9078 22.1987L21.6775 17.7056C21.8318 17.4552 21.7539 17.1272 21.5036 16.9728Z"
                    fill="black" />
                  <path
                    d="M4.63536 21.3846L4.55407 21.3338C4.1126 21.0575 3.80496 20.6249 3.68774 20.1157C3.5706 19.6064 3.65821 19.0828 3.93453 18.6412C4.09059 18.392 4.01498 18.0634 3.7657 17.9074C3.51628 17.7513 3.18777 17.827 3.03186 18.0762C2.60459 18.7589 2.46899 19.568 2.64996 20.3544C2.83094 21.1409 3.30655 21.8093 3.98913 22.2365L4.0705 22.2874C4.15832 22.3424 4.25594 22.3686 4.35243 22.3686C4.52986 22.3686 4.7033 22.28 4.80433 22.1185C4.96032 21.8692 4.8847 21.5406 4.63536 21.3846Z"
                    fill="black" />
                  <path
                    d="M15.5015 3.84335L15.5828 3.89418C16.4959 4.46572 16.7739 5.67361 16.2024 6.58672C16.0463 6.836 16.1219 7.16458 16.3712 7.32056C16.459 7.37552 16.5567 7.40178 16.6532 7.40178C16.8306 7.40178 17.004 7.31318 17.1051 7.15173C17.9882 5.74085 17.5588 3.87459 16.1478 2.99144L16.0665 2.94053C15.817 2.78455 15.4886 2.86016 15.3326 3.10944C15.1766 3.35871 15.2523 3.68736 15.5015 3.84335Z"
                    fill="black" />
                  <path
                    d="M14.5865 15.442C14.5865 15.442 14.5866 15.442 14.5866 15.4419L19.0236 8.35286C19.7722 7.15682 20.0102 5.7409 19.6939 4.36581C19.3775 2.99078 18.5445 1.82123 17.3486 1.07269L17.2672 1.02171C16.4255 0.494835 15.4579 0.216309 14.4692 0.216309C12.6347 0.216309 10.9592 1.14362 9.98705 2.69678L1.11282 16.8751C0.364217 18.0712 0.12623 19.4871 0.442599 20.8621C0.758967 22.2371 1.59192 23.4067 2.78782 24.1552L2.86925 24.2062C3.71101 24.7331 4.67857 25.0116 5.66729 25.0116C7.50175 25.0116 9.17731 24.0842 10.1494 22.5311L14.5865 15.442C14.5865 15.4421 14.5865 15.4421 14.5865 15.442ZM10.8898 3.26185C11.666 2.02172 13.0041 1.28135 14.4692 1.28135C15.2579 1.28135 16.03 1.50379 16.7021 1.92446L16.7836 1.97543C17.7385 2.5731 18.4035 3.5068 18.6561 4.60464C18.9087 5.70249 18.7186 6.83293 18.121 7.78785L13.9664 14.4257L6.73518 9.8997L10.8898 3.26185ZM9.24667 21.9662C8.47045 23.2063 7.13234 23.9467 5.66722 23.9467C4.87857 23.9467 4.10647 23.7243 3.43433 23.3037L3.35289 23.2527C2.39796 22.655 1.73299 21.7213 1.48038 20.6235C1.22777 19.5257 1.41783 18.3952 2.0155 17.4403L6.1701 10.8024L13.4013 15.3284L9.24667 21.9662Z"
                    fill="black" />
                </svg>