                <svg width="25" height="26" viewBox="0 0 25 26" fill="none" xmlns="http://www.w3.org/2000/svg">
                  <g clip-path="url(#clip0)">
                    <path
                      d="M18.2293 25.1139C14.496 25.1139 11.4585 22.0764 11.4585 18.3431C11.4585 14.6098 14.496 11.5723 18.2293 11.5723C21.9627 11.5723 25.0002 14.6098 25.0002 18.3431C25.0002 22.0764 21.9627 25.1139 18.2293 25.1139ZM18.2293 12.6139C15.07 12.6139 12.5002 15.1848 12.5002 18.3431C12.5002 21.5014 15.07 24.0723 18.2293 24.0723C21.3887 24.0723 23.9585 21.5014 23.9585 18.3431C23.9585 15.1848 21.3887 12.6139 18.2293 12.6139Z"
                      fill="black" />
                    <path
                      d="M17.1879 20.9473C17.0504 20.9473 16.9171 20.8921 16.8192 20.7952L14.7358 18.7119C14.5327 18.5088 14.5327 18.1786 14.7358 17.9754C14.939 17.7723 15.2692 17.7723 15.4723 17.9754L17.1619 19.665L20.4411 15.9171C20.6306 15.6994 20.9598 15.6786 21.1765 15.8681C21.3931 16.0577 21.415 16.3859 21.2254 16.6025L17.5796 20.7692C17.4848 20.8775 17.3483 20.9421 17.2046 20.9473C17.1994 20.9473 17.1931 20.9473 17.1879 20.9473Z"
                      fill="black" />
                    <path
                      d="M9.89583 21.9888H2.60417C1.16875 21.9888 0 20.8211 0 19.3846V5.84294C0 4.40648 1.16875 3.23877 2.60417 3.23877H4.6875C4.975 3.23877 5.20833 3.4721 5.20833 3.7596C5.20833 4.0471 4.975 4.28044 4.6875 4.28044H2.60417C1.74271 4.28044 1.04167 4.98148 1.04167 5.84294V19.3846C1.04167 20.2461 1.74271 20.9471 2.60417 20.9471H9.89583C10.1833 20.9471 10.4167 21.1804 10.4167 21.4679C10.4167 21.7554 10.1833 21.9888 9.89583 21.9888Z"
                      fill="black" />
                    <path
                      d="M17.1875 9.48877C16.9 9.48877 16.6667 9.25544 16.6667 8.96794V5.84294C16.6667 4.98148 15.9656 4.28044 15.1042 4.28044H13.0208C12.7333 4.28044 12.5 4.0471 12.5 3.7596C12.5 3.4721 12.7333 3.23877 13.0208 3.23877H15.1042C16.5396 3.23877 17.7083 4.40648 17.7083 5.84294V8.96794C17.7083 9.25544 17.475 9.48877 17.1875 9.48877Z"
                      fill="black" />
                    <path
                      d="M11.979 6.36377H5.729C4.86755 6.36377 4.1665 5.66273 4.1665 4.80127V2.71794C4.1665 2.43044 4.39984 2.1971 4.68734 2.1971H6.30192C6.54463 1.0096 7.59567 0.11377 8.854 0.11377C10.1123 0.11377 11.1634 1.0096 11.4061 2.1971H13.0207C13.3082 2.1971 13.5415 2.43044 13.5415 2.71794V4.80127C13.5415 5.66273 12.8405 6.36377 11.979 6.36377ZM5.20817 3.23877V4.80127C5.20817 5.08773 5.4415 5.3221 5.729 5.3221H11.979C12.2665 5.3221 12.4998 5.08773 12.4998 4.80127V3.23877H10.9373C10.6498 3.23877 10.4165 3.00544 10.4165 2.71794C10.4165 1.85648 9.71546 1.15544 8.854 1.15544C7.99255 1.15544 7.2915 1.85648 7.2915 2.71794C7.2915 3.00544 7.05817 3.23877 6.77067 3.23877H5.20817Z"
                      fill="black" />
                    <path
                      d="M14.0625 9.48894H3.64583C3.35833 9.48894 3.125 9.2556 3.125 8.9681C3.125 8.6806 3.35833 8.44727 3.64583 8.44727H14.0625C14.35 8.44727 14.5833 8.6806 14.5833 8.9681C14.5833 9.2556 14.35 9.48894 14.0625 9.48894Z"
                      fill="black" />
                    <path
                      d="M10.9375 12.6139H3.64583C3.35833 12.6139 3.125 12.3806 3.125 12.0931C3.125 11.8056 3.35833 11.5723 3.64583 11.5723H10.9375C11.225 11.5723 11.4583 11.8056 11.4583 12.0931C11.4583 12.3806 11.225 12.6139 10.9375 12.6139Z"
                      fill="black" />
                    <path
                      d="M8.85417 15.7389H3.64583C3.35833 15.7389 3.125 15.5056 3.125 15.2181C3.125 14.9306 3.35833 14.6973 3.64583 14.6973H8.85417C9.14167 14.6973 9.375 14.9306 9.375 15.2181C9.375 15.5056 9.14167 15.7389 8.85417 15.7389Z"
                      fill="black" />
                  </g>
                  <defs>
                    <clipPath id="clip0">
                      <rect width="25" height="25" fill="white" transform="translate(0 0.11377)" />
                    </clipPath>
                  </defs>
                </svg>