<svg width="24" height="24" viewBox="0 0 24 24" fill="none" xmlns="http://www.w3.org/2000/svg">
<path d="M17.7255 22.1261C15.6566 23.0185 13.8634 23.3157 11.415 23.3157C5.691 23.3157 0.65625 19.383 0.65625 12.9064C0.65625 6.16486 5.75963 0.315674 13.5533 0.315674C19.6223 0.315674 23.967 4.31444 23.967 9.86607C23.967 14.6907 21.1395 17.731 17.4154 17.731C15.7946 17.731 14.6224 16.9378 14.4499 15.1863H14.3809C13.3121 16.8717 11.7604 17.731 9.93262 17.731C7.69125 17.731 6.0705 16.1447 6.0705 13.4347C6.0705 9.40319 9.174 5.73505 14.1394 5.73505C15.6566 5.73505 17.3805 6.09874 18.243 6.56125L17.2087 12.6749C16.8641 14.6242 17.1053 15.5169 18.0709 15.5496C19.5536 15.5826 21.4155 13.7649 21.4155 9.96489C21.4155 5.66892 18.519 2.33105 13.1737 2.33105C7.89825 2.33105 3.27712 6.29675 3.27712 12.6085C3.27712 18.127 6.96675 21.2665 12.105 21.2665C13.8637 21.2665 15.726 20.9032 17.1049 20.2089L17.7255 22.1261ZM14.6565 8.47816C14.3805 8.41203 14.0355 8.34591 13.5874 8.34591C11.3119 8.34591 9.51825 10.4939 9.51825 13.0383C9.51825 14.2939 10.1047 15.0871 11.2425 15.0871C12.5182 15.0871 13.8634 13.5338 14.1735 11.6173L14.6565 8.47816Z" fill="#E249E5"/>
</svg>
