<svg width="134" height="53" viewBox="0 0 134 53" version="1.1" xmlns="http://www.w3.org/2000/svg"><g id="HomePage" stroke="none" stroke-width="1" fill="none" fill-rule="evenodd"><g id="01-Home" transform="translate(-974 -2695)" fill-rule="nonzero"><g id="Metodos" transform="translate(0 2482)"><g id="ico_pse" transform="translate(974 213)"><g id="XMLID_2_" transform="translate(86 14)" fill="#0660AA"><path d="M15.795 25.779H1.06a.855.855 0 0 1-.837-.83c0-.443.391-.83.837-.83h14.68c.558-.11 4.409-1.106 4.576-5.587.168-4.48-2.4-4.923-2.846-4.979H7.98c-3.795-.608-4.576-3.983-4.465-5.808C3.516 3.098 7.48.995 9.6.498h13.451c.447 0 .837.387.837.83 0 .442-.39.83-.837.83H9.88c-.67.165-4.688 1.382-4.688 5.587V7.8c0 .166-.168 3.485 3.014 4.094h9.32c.056 0 4.689.332 4.41 6.693-.168 4.868-4.019 6.86-6.028 7.192h-.112z" id="XMLID_3_"/></g><g id="XMLID_4_" transform="translate(110 14)" fill="#0660AA"><path d="M19.59 25.83H5.86C4.074 25.66.67 24.36.558 20.97c-.056-3.618 2.289-14.583 2.4-15.035 0-.057 0-.057.056-.113.056-.226 2.065-5.54 6.53-5.54h9.768c.055 0 .167 0 .223.057.167.057 4.186 1.244 4.186 4.748 0 2.94-.837 7.913-.893 8.14-.056.395-.39.677-.837.677l-18.921.17c-.503 2.713-.893 5.483-.837 6.839.055 2.6 3.348 3.165 3.74 3.222h13.562c.446 0 .837.395.837.848.056.508-.335.847-.781.847zM4.634 6.387c-.112.452-.67 3.052-1.228 5.991l17.916-.17c.223-1.469.726-4.973.726-7.121 0-1.978-2.345-2.94-2.903-3.109H9.488c-3.014.057-4.632 3.957-4.855 4.409z" id="XMLID_5_"/></g><g id="XMLID_8_" transform="translate(61 14)" fill="#0660AA"><path d="M1.217 36.664h-.166c-.442-.056-.774-.505-.664-.953l2.656-14.8c.663-3.7 1.327-7.4 1.825-10.203.277-1.402.443-2.523.609-3.364.11-.673.22-1.121.276-1.402.94-2.578 3.873-5.381 6.03-5.718h9.515c.83 0 5.09 1.626 4.591 5.102v.112l-2.323 14.295v.112c-.055.169-1.272 4.43-5.31 5.663-.056 0-.167.056-.222.056l-8.52.224h-.11c-.11 0-2.821-.28-4.978-3.083-.94 5.101-1.826 10.259-2.38 13.342-.11.336-.442.617-.829.617zm3.651-16.426c1.715 3.251 4.315 3.756 4.702 3.812l8.353-.224c2.877-.953 3.983-4.037 4.094-4.429L24.34 5.214c.222-1.57-2.157-3.252-3.153-3.252h-9.072c-1.383.224-3.928 2.523-4.702 4.597-.222.56-1.328 6.84-2.545 13.679z" id="XMLID_9_"/></g><path d="M51 10.5c0 1.369-1.131 2.5-2.5 2.5a2.515 2.515 0 0 1-2.5-2.5C46 9.131 47.131 8 48.5 8S51 9.131 51 10.5z" id="XMLID_12_" fill="#FDB718"/><circle id="XMLID_13_" fill="#FDB718" cx="42.5" cy="2.5" r="2.5"/><path d="M40 10.5c0 1.369-1.131 2.5-2.5 2.5a2.515 2.515 0 0 1-2.5-2.5C35 9.131 36.131 8 37.5 8c1.429 0 2.5 1.131 2.5 2.5z" id="XMLID_15_" fill="#FDB718"/><circle id="XMLID_16_" fill="#FDB718" cx="47.5" cy="42.5" r="2.5"/><circle id="XMLID_17_" fill="#FDB718" cx="42.5" cy="34.5" r="2.5"/><circle id="XMLID_21_" fill="#FDB718" cx="33" cy="35" r="2"/><path d="M40 42c0 1.086-.857 2-2 2-1.086 0-2-.857-2-2 0-1.086.857-2 2-2 1.086 0 2 .914 2 2z" id="XMLID_22_" fill="#FDB718"/><circle id="XMLID_23_" fill="#FDB718" cx="33" cy="51" r="2"/><circle id="XMLID_24_" fill="#FDB718" cx="27.5" cy="42.5" r="1.5"/><circle id="XMLID_25_" fill="#FDB718" cx="9.5" cy="26.5" r="1.5"/><circle id="XMLID_26_" fill="#FDB718" cx="11.5" cy="18.5" r="1.5"/><path d="M18 10.5c0 .833-.667 1.5-1.5 1.5s-1.5-.667-1.5-1.5.667-1.5 1.5-1.5 1.5.667 1.5 1.5z" id="XMLID_27_" fill="#FDB718"/><path d="M24 2.5c0 .833-.667 1.5-1.5 1.5S21 3.333 21 2.5 21.667 1 22.5 1s1.5.667 1.5 1.5z" id="XMLID_28_" fill="#FDB718"/><circle id="XMLID_29_" fill="#FDB718" cx="22.5" cy="50.5" r="1.5"/><circle id="XMLID_30_" fill="#FDB718" cx="17.5" cy="42.5" r="1.5"/><circle id="XMLID_32_" fill="#FDB718" cx="11.5" cy="34.5" r="1.5"/><circle id="XMLID_33_" fill="#FDB718" cx="9" cy="42" r="1"/><circle id="XMLID_34_" fill="#FDB718" cx="4" cy="35" r="1"/><path d="M2 27c0 .571-.429 1-1 1s-1-.429-1-1 .429-1 1-1 1 .5 1 1z" id="XMLID_38_" fill="#FDB718"/><circle id="XMLID_39_" fill="#FDB718" cx="4" cy="19" r="1"/><circle id="XMLID_40_" fill="#FDB718" cx="9" cy="11" r="1"/><circle id="XMLID_41_" fill="#FDB718" cx="22" cy="35" r="2"/><circle id="XMLID_46_" fill="#FDB718" cx="17" cy="27" r="2"/><path d="M24 19c0 1.086-.857 2-2 2-1.086 0-2-.857-2-2 0-1.086.857-2 2-2 1.086 0 2 .914 2 2z" id="XMLID_47_" fill="#FDB718"/><circle id="XMLID_48_" fill="#FDB718" cx="27" cy="11" r="2"/><circle id="XMLID_49_" fill="#FDB718" cx="32" cy="3" r="2"/><circle id="XMLID_50_" fill="#FDB718" cx="27.5" cy="26.5" r="2.5"/><circle id="XMLID_51_" fill="#FDB718" cx="32.5" cy="18.5" r="2.5"/><circle id="XMLID_52_" fill="#FDB718" cx="42.5" cy="50.5" r="2.5"/><path id="XMLID_70_" fill="#FDB718" d="M29 26h34v1H29z"/><path id="XMLID_66_" fill="#FDB718" d="M34 18h11v1H34z"/><path id="XMLID_69_" fill="#FDB718" d="M50.248 27L44 18h1.752L52 27z"/><path id="XMLID_68_" fill="#FDB718" d="M45 34h6v1h-6z"/><path id="XMLID_67_" fill="#FDB718" d="M49 35l4.684-8H55l-4.684 8z"/></g></g></g></g></svg>