                <svg width="25" height="20" viewBox="0 0 25 20" fill="none" xmlns="http://www.w3.org/2000/svg">
                  <path
                    d="M8.5264 9.88674C10.5978 9.88674 12.2872 8.61468 12.2872 7.05625C12.2872 5.49765 10.6029 4.22559 8.5264 4.22559C6.44993 4.22559 4.76562 5.49765 4.76562 7.05625C4.76562 8.61468 6.45495 9.88674 8.5264 9.88674ZM8.5264 5.23101C10.0346 5.23101 11.2816 6.06572 11.2816 7.05607C11.2816 8.04661 10.0196 8.88114 8.5264 8.88114C7.03306 8.88114 5.77104 8.04661 5.77104 7.05607C5.77104 6.06572 7.03306 5.22598 8.5264 5.22598V5.23101Z"
                    fill="black" />
                  <path
                    d="M24.4693 12.2848H17.0484V7.05079C17.0484 3.61189 13.2223 0.811523 8.50133 0.811523C3.78015 0.811523 -0.0458984 3.61189 -0.0458984 7.05079V13.235C-0.0458984 16.4024 3.19701 19.0168 7.37506 19.414H7.46059C7.80738 19.4443 8.15938 19.4694 8.5164 19.4694H24.4693C24.7469 19.4694 24.9721 19.2442 24.9721 18.9666V12.7874C24.9721 12.51 24.7469 12.2848 24.4693 12.2848ZM8.52644 1.82196C12.6742 1.82196 16.0681 4.16992 16.0681 7.05599C16.0681 9.94189 12.6944 12.2898 8.52644 12.2898C4.35844 12.2898 0.984805 9.94189 0.984805 7.05581C0.984805 4.16992 4.38354 1.82196 8.52644 1.82196ZM16.0681 9.98708V12.2848H13.1519C14.2902 11.7689 15.2832 10.9796 16.0428 9.98708H16.0681ZM23.9665 18.4638H22.9609V15.9197C22.9609 15.6423 22.7357 15.4169 22.4583 15.4169C22.1807 15.4169 21.9555 15.6421 21.9555 15.9197V18.4689H19.9443V17.0862C19.9443 16.8086 19.7191 16.5834 19.4415 16.5834C19.1639 16.5834 18.9387 16.8086 18.9387 17.0862V18.4689H16.9277V17.0862C16.9277 16.8086 16.7025 16.5834 16.4249 16.5834C16.1473 16.5834 15.9221 16.8086 15.9221 17.0862V18.4689H13.9109V15.9197C13.9109 15.6423 13.6857 15.4169 13.4081 15.4169C13.1307 15.4169 12.9053 15.6421 12.9053 15.9197V18.4689H10.9798V17.0862C10.9798 16.8086 10.7544 16.5834 10.477 16.5834C10.1994 16.5834 9.97423 16.8086 9.97423 17.0862V18.4689H8.52608C8.33511 18.4689 8.14916 18.4689 7.96303 18.4689V17.0862C7.96303 16.8086 7.73781 16.5834 7.46023 16.5834C7.18265 16.5834 6.95743 16.8086 6.95743 17.0862V18.3482C3.56407 17.8454 1.00991 15.7438 1.00991 13.23V9.98708C2.44784 11.9529 5.2785 13.2902 8.55154 13.2902H23.9665V18.4638Z"
                    fill="black" />
                </svg>