<svg width="26" height="26" viewBox="0 0 26 26" fill="none" xmlns="http://www.w3.org/2000/svg">
<path d="M6.70001 25.5842C6.34601 25.5842 5.99467 25.4854 5.68626 25.2908C5.15258 24.9538 4.82185 24.3761 4.80163 23.7449L4.74002 21.7239C2.20554 19.4513 0.808594 16.2605 0.808594 12.7399C0.808594 9.37973 2.09663 6.28963 4.43504 4.03877C6.74903 1.81175 9.90035 0.585327 13.3086 0.585327C16.7168 0.585327 19.8682 1.81175 22.1822 4.03877C24.5206 6.28963 25.8086 9.37973 25.8086 12.7399C25.8086 16.0999 24.5206 19.19 22.1822 21.4408C19.8682 23.6679 16.7168 24.8945 13.3086 24.8945C12.0799 24.8945 10.8775 24.7356 9.7346 24.4224L7.46581 25.4234C7.21996 25.5312 6.95941 25.5842 6.70001 25.5842ZM13.3086 2.53845C7.29587 2.53845 2.76172 6.92402 2.76172 12.7399C2.76172 15.7022 3.9315 18.3801 6.05552 20.2802C6.44729 20.6331 6.67216 21.1111 6.69105 21.6283L6.69124 21.6344L6.75151 23.6038L8.96346 22.6278C9.36172 22.4525 9.8109 22.4187 10.2292 22.5328C11.2122 22.804 12.2473 22.9412 13.3086 22.9412C19.3213 22.9412 23.8555 18.5556 23.8555 12.7399C23.8555 6.92402 19.3213 2.53845 13.3086 2.53845ZM7.16293 16.7293L10.8126 13.9154C11.0593 13.7304 11.3988 13.7279 11.6477 13.9131L14.3483 16.0123C15.1578 16.6164 16.3163 16.4034 16.8559 15.5517L20.2504 10.1688C20.5783 9.65496 19.941 9.07417 19.4548 9.4421L15.8068 12.2064C15.5602 12.3916 15.2207 12.3939 14.9718 12.2087L12.2712 10.1585C11.4617 9.55444 10.3032 9.7673 9.7636 10.6189L6.36737 16.0024C6.0395 16.5163 6.67674 17.0972 7.16293 16.7293Z" fill="#2196F3"/>
</svg>
