<svg width="33" height="31" viewBox="0 0 33 31" fill="none" xmlns="http://www.w3.org/2000/svg">
<g clip-path="url(#clip0)">
<path fill-rule="evenodd" clip-rule="evenodd" d="M4.09062 7.05346L17.6014 0.287959C17.9977 0.0893994 18.4498 0.0236281 18.8881 0.100764C19.3264 0.1779 19.7267 0.39367 20.0273 0.714879L31.639 13.4552C31.9782 13.8212 32.1635 14.299 32.1576 14.7928C32.1518 15.2867 31.9552 15.7601 31.6073 16.1183L19.0547 29.2721C18.762 29.5454 18.4147 29.7567 18.0347 29.8929C17.6546 30.0291 17.2499 30.0872 16.8459 30.0637C16.4418 30.0401 16.047 29.9354 15.6862 29.7559C15.3255 29.5765 15.0064 29.3263 14.749 29.021L2.58293 13.0199C2.22536 12.5482 1.97877 12.0051 1.86076 11.4295C1.74276 10.8538 1.75625 10.2598 1.90027 9.68986C2.0443 9.1199 2.3153 8.58806 2.69393 8.13232C3.07257 7.67658 3.54948 7.30819 4.09062 7.05346Z" fill="#FF2F73"/>
<path fill-rule="evenodd" clip-rule="evenodd" d="M1.59025 13.2921L10.3826 1.59724C10.6515 1.25093 11.0299 1.00111 11.459 0.886589C11.8881 0.772068 12.3439 0.799253 12.7555 0.963922L29.2902 7.48335C29.7655 7.65898 30.1573 8.00061 30.3899 8.44219C30.6224 8.88378 30.6792 9.39396 30.5493 9.8741L25.705 26.8712C25.5664 27.2414 25.3502 27.5793 25.0702 27.863C24.7902 28.1468 24.4526 28.3702 24.0791 28.519C23.7056 28.6677 23.3044 28.7385 22.9012 28.7268C22.4981 28.7152 22.1019 28.6213 21.738 28.4511L3.13026 19.2522C2.58769 19.0001 2.10875 18.6341 1.72763 18.1802C1.34651 17.7263 1.07262 17.1957 0.925513 16.6264C0.778405 16.0571 0.761709 15.463 0.876616 14.8866C0.991523 14.3103 1.2352 13.7658 1.59025 13.2921Z" fill="#2FCAD7"/>
<path fill-rule="evenodd" clip-rule="evenodd" d="M14.7087 1.72852L7.59916 5.28775L2.22217 12.4405C2.32532 12.6402 2.44494 12.8313 2.57983 13.012L9.84212 22.5649L20.4434 27.8062L27.5581 20.3496L30.0274 11.6825L24.4561 5.56978L14.7087 1.72852Z" fill="#210049"/>
</g>
<defs>
<clipPath id="clip0">
<rect width="31.3636" height="30" fill="white" transform="translate(0.793945 0.0703125)"/>
</clipPath>
</defs>
</svg>
