<svg width="25" height="23" viewBox="0 0 25 23" fill="none" xmlns="http://www.w3.org/2000/svg">
<path d="M23.1387 0.683044C22.8136 0.697385 22.5108 0.792067 22.2441 0.899841C21.9944 1.0003 21.0401 1.40958 19.5371 2.05414C18.0328 2.69926 16.0409 3.55445 13.916 4.4682C9.66634 6.2957 4.88859 8.35284 2.44141 9.4057C2.34938 9.44528 2.0283 9.54785 1.6875 9.8139C1.3467 10.08 0.984375 10.6313 0.984375 11.2455C0.984375 11.7409 1.22044 12.233 1.51758 12.5268C1.81471 12.8206 2.12912 12.9657 2.39844 13.0756C3.3756 13.4743 6.40622 14.7145 6.97852 14.9487C7.17992 15.5657 8.27687 18.9212 8.53125 19.7436C8.69894 20.2863 8.85857 20.6262 9.06641 20.8959C9.17032 21.0308 9.29112 21.149 9.4375 21.2416C9.49601 21.2787 9.56016 21.3072 9.625 21.3334L9.62891 21.3354C9.64385 21.3414 9.65672 21.3516 9.67188 21.3569C9.70046 21.3669 9.71958 21.3681 9.75781 21.3764C9.91014 21.4256 10.0639 21.4565 10.2012 21.4565C10.7863 21.4565 11.1445 21.1342 11.1445 21.1342L11.166 21.1186L14.1758 18.5151L17.8262 21.9682C17.8776 22.0409 18.3569 22.6987 19.4141 22.6987C20.0418 22.6987 20.5397 22.3837 20.8594 22.0483C21.1791 21.7129 21.3782 21.3605 21.4629 20.9174V20.9155C21.5421 20.4968 24.9062 3.22601 24.9062 3.22601L24.9004 3.24945C24.9989 2.79994 25.0247 2.38131 24.916 1.9682C24.8073 1.55509 24.521 1.15956 24.166 0.946716C23.811 0.73392 23.4637 0.668703 23.1387 0.683044ZM22.9512 2.77289C22.9464 2.80207 22.9548 2.7874 22.9473 2.82172L22.9453 2.83343L22.9434 2.84515C22.9434 2.84515 19.6209 19.895 19.498 20.5444C19.507 20.4953 19.4659 20.5928 19.4238 20.6518C19.3643 20.6107 19.2422 20.558 19.2422 20.558L19.2227 20.5366L14.2363 15.8198L10.7109 18.8666L11.7598 14.6674C11.7598 14.6674 18.3159 7.88078 18.7109 7.48578C19.0289 7.16978 19.0957 7.05962 19.0957 6.95062C19.0957 6.80462 19.0196 6.69867 18.8496 6.69867C18.6966 6.69867 18.4909 6.84742 18.3809 6.91742C16.9478 7.83096 10.6562 11.4978 7.83594 13.1381C7.38775 12.9547 4.27404 11.6801 3.21875 11.2495C3.22674 11.246 3.22411 11.2472 3.23242 11.2436C5.68024 10.1905 10.456 8.13334 14.7051 6.30609C16.8296 5.39247 18.823 4.53663 20.3262 3.89203C21.8062 3.25735 22.8345 2.82056 22.9512 2.77289Z" fill="#6BA6FF"/>
</svg>
