                <svg width="27" height="27" viewBox="0 0 27 27" fill="none" xmlns="http://www.w3.org/2000/svg">
                  <g clip-path="url(#clip0)">
                    <path
                      d="M15.6273 3.9393C15.3241 3.63563 14.9215 3.46875 14.4921 3.46875C13.6072 3.46875 12.8868 4.1887 12.8868 5.0745C12.8868 5.50307 13.0537 5.90605 13.3569 6.20971L13.5519 6.40423L1.64469 18.3114C0.781612 19.1745 0.306152 20.3222 0.306152 21.5434C0.306152 24.0632 2.35685 26.1139 4.87667 26.1139C6.09747 26.1139 7.24516 25.6385 8.10865 24.7754L20.0158 12.8682L20.2108 13.0627C20.514 13.3664 20.9166 13.5333 21.346 13.5333C22.231 13.5333 22.9513 12.8133 22.9513 11.9275C22.9513 11.4989 22.7844 11.096 22.4812 10.7923L15.6273 3.9393ZM7.51566 24.1824C6.81127 24.887 5.87346 25.2752 4.87667 25.2752C2.81901 25.2752 1.14486 23.6011 1.14486 21.5434C1.14486 20.5466 1.53309 19.6092 2.23768 18.9044L4.25398 16.8881H14.8099L7.51566 24.1824ZM21.346 12.6946C21.1443 12.6946 20.9469 12.6129 20.8038 12.4697L20.0158 11.6822L15.6486 16.0494H5.09269L6.59647 14.5456L7.55804 15.5072L8.15104 14.9142L7.18947 13.9526L7.85454 13.2876L9.65482 15.0878L10.2478 14.4948L8.44753 12.6946L9.1126 12.0295L10.0742 12.9911L10.6672 12.3981L9.7056 11.4365L10.3707 10.7714L12.1709 12.5717L12.7639 11.9787L10.9637 10.1784L11.6287 9.51336L12.5903 10.4749L13.1833 9.88193L12.2217 8.92036L12.8868 8.25529L14.6871 10.0556L15.2801 9.46258L13.4798 7.6623L14.1449 6.99764L18.4613 11.3136L19.0543 10.7206L13.9499 5.61671C13.8052 5.47154 13.7255 5.27906 13.7255 5.0745C13.7255 4.65126 14.0693 4.30746 14.4921 4.30746C14.6938 4.30746 14.8912 4.38916 15.0344 4.53229L21.8882 11.3853C22.033 11.5305 22.1126 11.723 22.1126 11.9275C22.1126 12.3508 21.7688 12.6946 21.346 12.6946Z"
                      fill="black" />
                    <path
                      d="M24.6286 4.72656C23.7035 4.72656 22.9512 5.47886 22.9512 6.40398C22.9512 7.3291 23.7035 8.0814 24.6286 8.0814C25.5537 8.0814 26.306 7.3291 26.306 6.40398C26.306 5.47886 25.5537 4.72656 24.6286 4.72656ZM24.6286 7.24269C24.166 7.24269 23.7899 6.86654 23.7899 6.40398C23.7899 5.94142 24.166 5.56527 24.6286 5.56527C25.0912 5.56527 25.4673 5.94142 25.4673 6.40398C25.4673 6.86654 25.0912 7.24269 24.6286 7.24269Z"
                      fill="black" />
                    <path
                      d="M18.3386 3.88771C19.0322 3.88771 19.5967 3.32318 19.5967 2.62965C19.5967 1.93611 19.0322 1.37158 18.3386 1.37158C17.6451 1.37158 17.0806 1.93611 17.0806 2.62965C17.0806 3.32318 17.6451 3.88771 18.3386 3.88771ZM18.3386 2.21029C18.57 2.21029 18.758 2.39867 18.758 2.62965C18.758 2.86062 18.57 3.049 18.3386 3.049C18.1072 3.049 17.9193 2.86062 17.9193 2.62965C17.9193 2.39867 18.1072 2.21029 18.3386 2.21029Z"
                      fill="black" />
                    <path
                      d="M23.3709 2.6299C24.0644 2.6299 24.6289 2.06537 24.6289 1.37183C24.6289 0.678301 24.0644 0.11377 23.3709 0.11377C22.6773 0.11377 22.1128 0.678301 22.1128 1.37183C22.1128 2.06537 22.6773 2.6299 23.3709 2.6299ZM23.3709 0.952479C23.6022 0.952479 23.7902 1.14086 23.7902 1.37183C23.7902 1.60281 23.6022 1.79119 23.3709 1.79119C23.1395 1.79119 22.9515 1.60281 22.9515 1.37183C22.9515 1.14086 23.1395 0.952479 23.3709 0.952479Z"
                      fill="black" />
                    <path
                      d="M5.75783 19.4041C5.75783 18.7105 5.1933 18.146 4.49976 18.146C3.80623 18.146 3.2417 18.7105 3.2417 19.4041C3.2417 20.0976 3.80623 20.6621 4.49976 20.6621C5.1933 20.6621 5.75783 20.0976 5.75783 19.4041ZM4.08041 19.4041C4.08041 19.1731 4.26838 18.9847 4.49976 18.9847C4.73115 18.9847 4.91912 19.1731 4.91912 19.4041C4.91912 19.635 4.73115 19.8234 4.49976 19.8234C4.26838 19.8234 4.08041 19.635 4.08041 19.4041Z"
                      fill="black" />
                    <path
                      d="M9.11256 18.146C8.41902 18.146 7.85449 18.7105 7.85449 19.4041C7.85449 20.0976 8.41902 20.6621 9.11256 20.6621C9.80609 20.6621 10.3706 20.0976 10.3706 19.4041C10.3706 18.7105 9.80609 18.146 9.11256 18.146ZM9.11256 19.8234C8.88117 19.8234 8.6932 19.635 8.6932 19.4041C8.6932 19.1731 8.88117 18.9847 9.11256 18.9847C9.34394 18.9847 9.53191 19.1731 9.53191 19.4041C9.53191 19.635 9.34394 19.8234 9.11256 19.8234Z"
                      fill="black" />
                    <path
                      d="M5.33863 21.9204C4.6451 21.9204 4.08057 22.4849 4.08057 23.1785C4.08057 23.872 4.6451 24.4365 5.33863 24.4365C6.03216 24.4365 6.5967 23.872 6.5967 23.1785C6.5967 22.4849 6.03216 21.9204 5.33863 21.9204ZM5.33863 23.5978C5.10725 23.5978 4.91928 23.4094 4.91928 23.1785C4.91928 22.9475 5.10725 22.7591 5.33863 22.7591C5.57001 22.7591 5.75799 22.9475 5.75799 23.1785C5.75799 23.4094 5.57001 23.5978 5.33863 23.5978Z"
                      fill="black" />
                  </g>
                  <defs>
                    <clipPath id="clip0">
                      <rect width="26" height="26" fill="white" transform="translate(0.306152 0.11377)" />
                    </clipPath>
                  </defs>
                </svg>