<svg width="29" height="30" viewBox="0 0 29 30" fill="none" xmlns="http://www.w3.org/2000/svg">
<g clip-path="url(#clip0)">
<path d="M18.4724 13.5416C17.3737 12.9128 16.2055 12.4336 15.0489 11.9365C14.3781 11.649 13.7362 11.3136 13.1695 10.8464C12.0534 9.92401 12.2673 8.42665 13.5743 7.83369C13.9444 7.66599 14.3319 7.61208 14.7251 7.58812C16.2402 7.50427 17.6802 7.79176 19.0507 8.47456C19.7331 8.81596 19.9586 8.70815 20.19 7.97145C20.4328 7.19282 20.6352 6.40221 20.8608 5.61759C21.0111 5.09052 20.8261 4.74313 20.3461 4.52152C19.4671 4.12023 18.565 3.83273 17.6166 3.67701C16.379 3.47936 16.379 3.47337 16.3732 2.18563C16.3674 0.370826 16.3674 0.370826 14.6094 0.370826C14.355 0.370826 14.1005 0.364837 13.8461 0.370826C13.0249 0.394784 12.8861 0.54452 12.863 1.40101C12.8514 1.78434 12.863 2.16766 12.8572 2.55698C12.8514 3.69498 12.8456 3.67701 11.7931 4.07231C9.24866 5.03062 7.67571 6.82746 7.508 9.7024C7.35764 12.2479 8.64145 13.9669 10.6597 15.2187C11.903 15.9913 13.2794 16.4465 14.5979 17.0515C15.1125 17.2851 15.6041 17.5546 16.032 17.9259C17.2985 19.01 17.0672 20.8128 15.5636 21.4956C14.7598 21.861 13.9097 21.9508 13.0365 21.837C11.6891 21.6634 10.3995 21.298 9.18505 20.6451C8.47375 20.2618 8.26556 20.3636 8.02268 21.1602C7.8145 21.849 7.62944 22.5438 7.44439 23.2386C7.19572 24.1729 7.28825 24.3945 8.14991 24.8318C9.24866 25.3828 10.4226 25.6643 11.6197 25.862C12.5565 26.0177 12.5854 26.0596 12.597 27.0658C12.6028 27.521 12.6028 27.9822 12.6085 28.4374C12.6143 29.0124 12.8803 29.3478 13.4529 29.3598C14.1005 29.3718 14.754 29.3718 15.4017 29.3538C15.9337 29.3418 16.2055 29.0424 16.2055 28.4853C16.2055 27.8624 16.2344 27.2335 16.2113 26.6106C16.1824 25.9758 16.4484 25.6523 17.0383 25.4846C18.3973 25.1013 19.5538 24.3466 20.4444 23.2206C22.9195 20.1061 21.9769 15.5481 18.4724 13.5416Z" fill="white"/>
</g>
<defs>
<clipPath id="clip0">
<rect width="28" height="29" fill="white" transform="translate(0.578125 0.368164)"/>
</clipPath>
</defs>
</svg>
