<svg width="301" height="144" viewBox="0 0 301 144" fill="none" xmlns="http://www.w3.org/2000/svg">
<circle cx="5.09197" cy="4.4865" r="4.16619" fill="#A3EEFF"/>
<circle cx="173.166" cy="4.66082" r="4.16619" fill="#A3EEFF"/>
<circle cx="89.131" cy="4.4865" r="4.16619" fill="#A3EEFF"/>
<circle cx="257.205" cy="4.66082" r="4.16619" fill="#A3EEFF"/>
<circle cx="89.131" cy="81.5973" r="4.16619" fill="#A3EEFF"/>
<circle cx="257.205" cy="81.7717" r="4.16619" fill="#A3EEFF"/>
<circle cx="5.09197" cy="81.5973" r="4.16619" fill="#A3EEFF"/>
<circle cx="173.166" cy="81.7717" r="4.16619" fill="#A3EEFF"/>
<circle cx="5.09197" cy="43.0422" r="4.16619" fill="#A3EEFF"/>
<circle cx="173.166" cy="43.216" r="4.16619" fill="#A3EEFF"/>
<circle cx="89.131" cy="43.0422" r="4.16619" fill="#A3EEFF"/>
<circle cx="257.205" cy="43.216" r="4.16619" fill="#A3EEFF"/>
<circle cx="89.131" cy="120.152" r="4.16619" fill="#A3EEFF"/>
<circle cx="257.205" cy="120.327" r="4.16619" fill="#A3EEFF"/>
<circle cx="5.09197" cy="120.152" r="4.16619" fill="#A3EEFF"/>
<circle cx="173.166" cy="120.327" r="4.16619" fill="#A3EEFF"/>
<circle cx="26.1037" cy="4.4865" r="4.16619" fill="#A3EEFF"/>
<circle cx="194.178" cy="4.66082" r="4.16619" fill="#A3EEFF"/>
<circle cx="110.139" cy="4.4865" r="4.16619" fill="#A3EEFF"/>
<circle cx="278.213" cy="4.66082" r="4.16619" fill="#A3EEFF"/>
<circle cx="110.139" cy="81.5973" r="4.16619" fill="#A3EEFF"/>
<circle cx="278.213" cy="81.7717" r="4.16619" fill="#A3EEFF"/>
<circle cx="26.1037" cy="81.5973" r="4.16619" fill="#A3EEFF"/>
<circle cx="194.178" cy="81.7717" r="4.16619" fill="#A3EEFF"/>
<circle cx="26.1037" cy="43.0422" r="4.16619" fill="#A3EEFF"/>
<circle cx="194.178" cy="43.216" r="4.16619" fill="#A3EEFF"/>
<circle cx="110.139" cy="43.0422" r="4.16619" fill="#A3EEFF"/>
<circle cx="278.213" cy="43.216" r="4.16619" fill="#A3EEFF"/>
<circle cx="110.139" cy="120.152" r="4.16619" fill="#A3EEFF"/>
<circle cx="278.213" cy="120.327" r="4.16619" fill="#A3EEFF"/>
<circle cx="26.1037" cy="120.152" r="4.16619" fill="#A3EEFF"/>
<circle cx="194.178" cy="120.327" r="4.16619" fill="#A3EEFF"/>
<circle cx="68.1232" cy="4.4865" r="4.16619" fill="#A3EEFF"/>
<circle cx="236.194" cy="4.66082" r="4.16619" fill="#A3EEFF"/>
<circle cx="152.158" cy="4.4865" r="4.16619" fill="#A3EEFF"/>
<circle cx="152.158" cy="81.5973" r="4.16619" fill="#A3EEFF"/>
<circle cx="68.1232" cy="81.5973" r="4.16619" fill="#A3EEFF"/>
<circle cx="236.194" cy="81.7717" r="4.16619" fill="#A3EEFF"/>
<circle cx="68.1232" cy="43.0422" r="4.16619" fill="#A3EEFF"/>
<circle cx="236.194" cy="43.216" r="4.16619" fill="#A3EEFF"/>
<circle cx="152.158" cy="43.0422" r="4.16619" fill="#A3EEFF"/>
<circle cx="152.158" cy="120.152" r="4.16619" fill="#A3EEFF"/>
<circle cx="68.1232" cy="120.152" r="4.16619" fill="#A3EEFF"/>
<circle cx="236.194" cy="120.327" r="4.16619" fill="#A3EEFF"/>
<circle cx="26.1037" cy="23.7638" r="4.16619" fill="#A3EEFF"/>
<circle cx="194.178" cy="23.9387" r="4.16619" fill="#A3EEFF"/>
<circle cx="110.139" cy="23.7638" r="4.16619" fill="#A3EEFF"/>
<circle cx="278.213" cy="23.9387" r="4.16619" fill="#A3EEFF"/>
<circle cx="110.139" cy="100.874" r="4.16619" fill="#A3EEFF"/>
<circle cx="278.213" cy="101.049" r="4.16619" fill="#A3EEFF"/>
<circle cx="26.1037" cy="100.874" r="4.16619" fill="#A3EEFF"/>
<circle cx="194.178" cy="101.049" r="4.16619" fill="#A3EEFF"/>
<circle cx="26.1037" cy="62.319" r="4.16619" fill="#A3EEFF"/>
<circle cx="194.178" cy="62.4938" r="4.16619" fill="#A3EEFF"/>
<circle cx="110.139" cy="62.319" r="4.16619" fill="#A3EEFF"/>
<circle cx="278.213" cy="62.4938" r="4.16619" fill="#A3EEFF"/>
<circle cx="110.139" cy="139.429" r="4.16619" fill="#A3EEFF"/>
<circle cx="278.213" cy="139.605" r="4.16619" fill="#A3EEFF"/>
<circle cx="26.1037" cy="139.429" r="4.16619" fill="#A3EEFF"/>
<circle cx="194.178" cy="139.605" r="4.16619" fill="#A3EEFF"/>
<circle cx="47.1076" cy="23.7638" r="4.16619" fill="#A3EEFF"/>
<circle cx="215.186" cy="23.9387" r="4.16619" fill="#A3EEFF"/>
<circle cx="131.147" cy="23.7638" r="4.16619" fill="#A3EEFF"/>
<circle cx="299.225" cy="23.9387" r="4.16619" fill="#A3EEFF"/>
<circle cx="131.147" cy="100.874" r="4.16619" fill="#A3EEFF"/>
<circle cx="299.225" cy="101.049" r="4.16619" fill="#A3EEFF"/>
<circle cx="47.1076" cy="100.874" r="4.16619" fill="#A3EEFF"/>
<circle cx="215.186" cy="101.049" r="4.16619" fill="#A3EEFF"/>
<circle cx="68.1232" cy="23.7638" r="4.16619" fill="#A3EEFF"/>
<circle cx="236.194" cy="23.9387" r="4.16619" fill="#A3EEFF"/>
<circle cx="152.158" cy="23.7638" r="4.16619" fill="#A3EEFF"/>
<circle cx="152.158" cy="100.874" r="4.16619" fill="#A3EEFF"/>
<circle cx="68.1232" cy="100.874" r="4.16619" fill="#A3EEFF"/>
<circle cx="236.194" cy="101.049" r="4.16619" fill="#A3EEFF"/>
<circle cx="68.1232" cy="62.319" r="4.16619" fill="#A3EEFF"/>
<circle cx="236.194" cy="62.4938" r="4.16619" fill="#A3EEFF"/>
<circle cx="152.158" cy="62.319" r="4.16619" fill="#A3EEFF"/>
<circle cx="152.158" cy="139.429" r="4.16619" fill="#A3EEFF"/>
<circle cx="68.1232" cy="139.429" r="4.16619" fill="#A3EEFF"/>
<circle cx="236.194" cy="139.605" r="4.16619" fill="#A3EEFF"/>
<circle cx="47.1076" cy="62.319" r="4.16619" fill="#A3EEFF"/>
<circle cx="215.186" cy="62.4938" r="4.16619" fill="#A3EEFF"/>
<circle cx="131.147" cy="62.319" r="4.16619" fill="#A3EEFF"/>
<circle cx="299.225" cy="62.4938" r="4.16619" fill="#A3EEFF"/>
<circle cx="131.147" cy="139.429" r="4.16619" fill="#A3EEFF"/>
<circle cx="299.225" cy="139.605" r="4.16619" fill="#A3EEFF"/>
<circle cx="47.1076" cy="139.429" r="4.16619" fill="#A3EEFF"/>
<circle cx="215.186" cy="139.605" r="4.16619" fill="#A3EEFF"/>
<circle cx="47.1076" cy="4.4865" r="4.16619" fill="#A3EEFF"/>
<circle cx="215.186" cy="4.66082" r="4.16619" fill="#A3EEFF"/>
<circle cx="131.147" cy="4.4865" r="4.16619" fill="#A3EEFF"/>
<circle cx="299.225" cy="4.66082" r="4.16619" fill="#A3EEFF"/>
<circle cx="131.147" cy="81.5973" r="4.16619" fill="#A3EEFF"/>
<circle cx="299.225" cy="81.7717" r="4.16619" fill="#A3EEFF"/>
<circle cx="47.1076" cy="81.5973" r="4.16619" fill="#A3EEFF"/>
<circle cx="215.186" cy="81.7717" r="4.16619" fill="#A3EEFF"/>
<circle cx="47.1076" cy="43.0422" r="4.16619" fill="#A3EEFF"/>
<circle cx="215.186" cy="43.216" r="4.16619" fill="#A3EEFF"/>
<circle cx="131.147" cy="43.0422" r="4.16619" fill="#A3EEFF"/>
<circle cx="299.225" cy="43.216" r="4.16619" fill="#A3EEFF"/>
<circle cx="131.147" cy="120.152" r="4.16619" fill="#A3EEFF"/>
<circle cx="299.225" cy="120.327" r="4.16619" fill="#A3EEFF"/>
<circle cx="47.1076" cy="120.152" r="4.16619" fill="#A3EEFF"/>
<circle cx="215.186" cy="120.327" r="4.16619" fill="#A3EEFF"/>
<circle cx="5.09197" cy="23.7638" r="4.16619" fill="#A3EEFF"/>
<circle cx="173.166" cy="23.9387" r="4.16619" fill="#A3EEFF"/>
<circle cx="89.131" cy="23.7638" r="4.16619" fill="#A3EEFF"/>
<circle cx="257.205" cy="23.9387" r="4.16619" fill="#A3EEFF"/>
<circle cx="89.131" cy="100.874" r="4.16619" fill="#A3EEFF"/>
<circle cx="257.205" cy="101.049" r="4.16619" fill="#A3EEFF"/>
<circle cx="5.09197" cy="100.874" r="4.16619" fill="#A3EEFF"/>
<circle cx="173.166" cy="101.049" r="4.16619" fill="#A3EEFF"/>
<circle cx="5.09197" cy="62.319" r="4.16619" fill="#A3EEFF"/>
<circle cx="173.166" cy="62.4938" r="4.16619" fill="#A3EEFF"/>
<circle cx="89.131" cy="62.319" r="4.16619" fill="#A3EEFF"/>
<circle cx="257.205" cy="62.4938" r="4.16619" fill="#A3EEFF"/>
<circle cx="89.131" cy="139.429" r="4.16619" fill="#A3EEFF"/>
<circle cx="257.205" cy="139.605" r="4.16619" fill="#A3EEFF"/>
<circle cx="5.09197" cy="139.429" r="4.16619" fill="#A3EEFF"/>
<circle cx="173.166" cy="139.605" r="4.16619" fill="#A3EEFF"/>
</svg>
