<svg width="33" height="33" viewBox="0 0 33 33" fill="none" xmlns="http://www.w3.org/2000/svg">
<g clip-path="url(#clip0)">
<path d="M10.1065 20.6802H19.4258V23.4034H10.1065V20.6802ZM10.1065 15.2339H23.4197V17.9571H10.1065V15.2339ZM10.1065 9.78762H23.4197V12.5108H10.1065V9.78762ZM26.0823 4.34132H20.5174C19.9583 2.76189 18.4938 1.61816 16.7631 1.61816C15.0324 1.61816 13.568 2.76189 13.0088 4.34132H7.44389C7.2575 4.34132 7.08443 4.35493 6.91136 4.39578C6.39215 4.50471 5.92618 4.77702 5.56673 5.14465C5.32709 5.38973 5.12739 5.68928 4.99426 6.01605C4.86113 6.32922 4.78125 6.68323 4.78125 7.06447V26.1265C4.78125 26.4942 4.86113 26.8618 4.99426 27.1886C5.12739 27.5153 5.32709 27.8013 5.56673 28.06C5.92618 28.4276 6.39215 28.6999 6.91136 28.8088C7.08443 28.8361 7.2575 28.8497 7.44389 28.8497H26.0823C27.5468 28.8497 28.745 27.6243 28.745 26.1265V7.06447C28.745 5.56673 27.5468 4.34132 26.0823 4.34132ZM16.7631 4.00092C17.309 4.00092 17.7616 4.46386 17.7616 5.0221C17.7616 5.58035 17.309 6.04329 16.7631 6.04329C16.2173 6.04329 15.7646 5.58035 15.7646 5.0221C15.7646 4.46386 16.2173 4.00092 16.7631 4.00092ZM26.0823 26.1265H7.44389V7.06447H26.0823V26.1265Z" fill="white"/>
</g>
<defs>
<clipPath id="clip0">
<rect width="31.9517" height="32.6778" fill="white" transform="translate(0.789062 0.256348)"/>
</clipPath>
</defs>
</svg>
