<svg width="33" height="34" viewBox="0 0 33 34" fill="none" xmlns="http://www.w3.org/2000/svg">
<g clip-path="url(#clip0)">
<path d="M31.1875 16.8683L27.939 13.0695L28.3917 8.04531L23.5856 6.92882L21.0694 2.57178L16.5429 4.55968L12.0165 2.57178L9.50027 6.91521L4.69421 8.01808L5.14686 13.0559L1.89844 16.8683L5.14686 20.6671L4.69421 25.705L9.50027 26.8214L12.0165 31.1649L16.5429 29.1634L21.0694 31.1513L23.5856 26.8078L28.3917 25.6913L27.939 20.6671L31.1875 16.8683ZM13.0549 22.3282L9.88635 19.0605C9.36714 18.5294 9.36714 17.6717 9.88635 17.1406L9.97954 17.0453C10.4988 16.5143 11.3508 16.5143 11.87 17.0453L14.0134 19.2511L20.8697 12.2254C21.3889 11.6943 22.241 11.6943 22.7602 12.2254L22.8534 12.3207C23.3726 12.8517 23.3726 13.7095 22.8534 14.2405L14.972 22.3282C14.4261 22.8593 13.5874 22.8593 13.0549 22.3282Z" fill="white"/>
</g>
<defs>
<clipPath id="clip0">
<rect width="31.9517" height="32.6778" fill="white" transform="translate(0.566406 0.529297)"/>
</clipPath>
</defs>
</svg>
