<svg width="194" height="33" viewBox="0 0 194 33" fill="none" xmlns="http://www.w3.org/2000/svg">
<path d="M30.5559 28.7326C29.9018 28.7326 29.2594 28.5621 28.6932 28.2383C28.1271 27.9146 27.6573 27.4489 27.3312 26.8884C27.0051 26.3279 26.8343 25.6923 26.8359 25.0457C26.8376 24.3991 27.0117 23.7644 27.3406 23.2055L39.8193 2.8191C40.1464 2.26219 40.6157 1.79998 41.1803 1.47868C41.7449 1.15739 42.3849 0.988281 43.0363 0.988281C43.6877 0.988281 44.3277 1.15739 44.8923 1.47868C45.4568 1.79998 45.9261 2.26219 46.2533 2.8191L57.1041 23.2055C57.4331 23.7645 57.6072 24.3994 57.6087 25.0461C57.6103 25.6929 57.4393 26.3286 57.1131 26.8891C56.7868 27.4497 56.3168 27.9153 55.7504 28.239C55.184 28.5626 54.5413 28.7329 53.8871 28.7326H30.5559Z" fill="url(#paint0_linear)"/>
<path d="M13.1982 31.1576L0.719496 10.887C0.39056 10.3281 0.216496 9.69333 0.214855 9.04672C0.213215 8.40011 0.384055 7.7645 0.71015 7.20398C1.03625 6.64346 1.50607 6.17784 2.07225 5.85408C2.63843 5.53031 3.28094 5.35985 3.93502 5.35986H27.2654C27.9194 5.35988 28.5619 5.53038 29.1281 5.85415C29.6942 6.17793 30.164 6.64355 30.4901 7.20407C30.8162 7.76458 30.987 8.40018 30.9853 9.04677C30.9837 9.69336 30.8096 10.3281 30.4807 10.887L19.6288 31.1576C19.3017 31.7145 18.8324 32.1767 18.2678 32.498C17.7033 32.8193 17.0633 32.9884 16.4118 32.9884C15.7604 32.9884 15.1204 32.8193 14.5559 32.498C13.9913 32.1767 13.522 31.7145 13.1948 31.1576H13.1982Z" fill="url(#paint1_linear)"/>
<path d="M78.8738 15.4967C78.8774 16.2794 78.6867 17.0504 78.3195 17.7379C77.9174 18.4662 77.3092 19.054 76.5745 19.4246C75.6458 19.8837 74.621 20.1041 73.5895 20.0664H71.1465V25.7875H68.2148V10.8851H73.5966C74.5921 10.8561 75.5808 11.0606 76.4864 11.4828C77.2317 11.8346 77.8557 12.4073 78.2769 13.1261C78.681 13.8473 78.8872 14.6662 78.8738 15.4967ZM73.4709 17.6531C74.1201 17.707 74.7647 17.5047 75.2718 17.0879C75.4737 16.8796 75.6303 16.6302 75.7313 16.356C75.8323 16.0818 75.8756 15.789 75.8583 15.4967C75.8583 14.0448 75.0626 13.3189 73.4711 13.3189H71.1465V17.6531H73.4709ZM87.4802 13.7887C88.2988 13.7735 89.1072 13.9761 89.8256 14.3765C90.5175 14.7763 91.0756 15.3788 91.4276 16.1059C91.832 16.9603 92.0297 17.9011 92.0041 18.8495V25.7875H89.0717V19.2541C89.121 18.4671 88.871 17.6911 88.3737 17.087C88.1311 16.8306 87.8372 16.6302 87.5121 16.4994C87.187 16.3687 86.8381 16.3106 86.4891 16.329C86.1347 16.3097 85.7804 16.3673 85.4495 16.498C85.1186 16.6286 84.8187 16.8294 84.5695 17.087C84.0696 17.6895 83.8192 18.4667 83.8715 19.2541V25.7875H80.9467V9.98828H83.8715V15.432C84.2655 14.9059 84.7844 14.4907 85.3793 14.2257C86.0403 13.9264 86.7572 13.777 87.4804 13.788L87.4802 13.7887ZM94.0347 19.8381C94.0128 18.7358 94.2522 17.6445 94.7327 16.6568C95.1594 15.7774 95.8196 15.0376 96.6382 14.5218C97.4491 14.0214 98.3813 13.7625 99.3291 13.7747C100.117 13.757 100.897 13.9405 101.598 14.3084C102.21 14.6322 102.743 15.0919 103.158 15.6535V13.9666H106.11V25.7877H103.165V24.0583C102.76 24.638 102.225 25.1102 101.605 25.4355C100.897 25.8093 100.109 25.9965 99.3118 25.9799C98.3681 25.9895 97.4414 25.7227 96.642 25.2112C95.8236 24.6812 95.1642 23.9313 94.7365 23.0442C94.254 22.0456 94.0134 20.9437 94.0349 19.8308L94.0347 19.8381ZM103.165 19.8808C103.183 19.2319 103.038 18.5891 102.746 18.0126C102.486 17.5138 102.095 17.0994 101.615 16.8169C101.151 16.5422 100.623 16.3984 100.087 16.4005C99.5477 16.395 99.0176 16.5404 98.5542 16.8208C98.0908 17.1013 97.7117 17.5061 97.4584 17.9911C97.1608 18.5583 97.0128 19.1947 97.0291 19.8378C97.0146 20.4876 97.1623 21.1305 97.4584 21.7061C97.7191 22.2123 98.11 22.6366 98.5892 22.9336C99.0403 23.2136 99.5584 23.3614 100.087 23.3606C100.623 23.3627 101.151 23.219 101.615 22.9442C102.095 22.6617 102.486 22.2474 102.746 21.7486C103.04 21.1696 103.184 20.5238 103.165 19.8722V19.8808ZM111.918 15.8027C112.284 15.1766 112.806 14.6609 113.432 14.3082C114.057 13.9555 114.763 13.7787 115.478 13.7957V16.9272H114.703C113.951 16.8697 113.206 17.1064 112.619 17.5891C112.354 17.9058 112.155 18.2743 112.035 18.672C111.915 19.0698 111.876 19.4884 111.921 19.902V25.7875H108.99V13.9594H111.921L111.918 15.8027ZM131.86 13.7887C132.493 13.7605 133.125 13.8642 133.718 14.0935C134.31 14.3229 134.85 14.673 135.305 15.1225C135.757 15.6218 136.106 16.2093 136.33 16.8496C136.553 17.4899 136.648 18.1697 136.607 18.8481V25.7875H133.675V19.2541C133.725 18.4798 133.474 17.7165 132.977 17.1291C132.731 16.8787 132.436 16.6838 132.111 16.5569C131.787 16.4301 131.44 16.3741 131.092 16.3926C130.744 16.3748 130.395 16.4311 130.069 16.5579C129.743 16.6846 129.446 16.8792 129.197 17.1291C128.95 17.4192 128.761 17.7562 128.641 18.1208C128.521 18.4854 128.473 18.8705 128.499 19.2541V25.7875H125.578V19.2541C125.628 18.4798 125.378 17.7165 124.88 17.1291C124.634 16.8787 124.339 16.6838 124.015 16.5569C123.69 16.4301 123.343 16.3741 122.996 16.3926C122.643 16.3729 122.29 16.4283 121.96 16.5551C121.629 16.6818 121.328 16.8773 121.076 17.1291C120.828 17.4192 120.639 17.7562 120.52 18.1208C120.4 18.4854 120.352 18.8705 120.378 19.2541V25.7875H117.446V13.9594H120.378V15.3836C120.763 14.8786 121.263 14.4758 121.833 14.2094C122.447 13.9202 123.115 13.7743 123.791 13.7824C124.636 13.7674 125.472 13.9695 126.22 14.3702C126.921 14.7507 127.497 15.3337 127.874 16.0462C128.262 15.3528 128.831 14.7834 129.518 14.4023C130.233 13.9921 131.04 13.7805 131.86 13.7887ZM138.645 19.8381C138.623 18.7358 138.863 17.6445 139.343 16.6568C139.77 15.7774 140.43 15.0376 141.249 14.5218C142.06 14.0214 142.992 13.7625 143.94 13.7747C144.728 13.757 145.507 13.9405 146.208 14.3084C146.82 14.6322 147.353 15.0919 147.768 15.6535V13.9666H150.721V25.7877H147.768V24.0583C147.364 24.638 146.829 25.1102 146.208 25.4355C145.5 25.8093 144.712 25.9965 143.915 25.9799C142.971 25.9895 142.045 25.7227 141.245 25.2112C140.427 24.6812 139.768 23.9313 139.34 23.0442C138.857 22.0456 138.617 20.9437 138.638 19.8308L138.645 19.8381ZM147.775 19.8808C147.793 19.2319 147.649 18.5891 147.356 18.0126C147.097 17.5138 146.705 17.0994 146.226 16.8169C145.761 16.5422 145.234 16.3984 144.697 16.4005C144.158 16.395 143.628 16.5404 143.165 16.8208C142.701 17.1013 142.322 17.5061 142.069 17.9911C141.77 18.5556 141.62 19.1894 141.633 19.8308C141.618 20.4806 141.766 21.1235 142.062 21.699C142.323 22.2053 142.713 22.6296 143.193 22.9266C143.644 23.2066 144.162 23.3544 144.69 23.3536C145.227 23.3557 145.754 23.212 146.219 22.9372C146.698 22.6547 147.09 22.2403 147.349 21.7416C147.642 21.165 147.786 20.5222 147.768 19.8733L147.775 19.8808ZM156.528 15.8027C156.894 15.1766 157.417 14.6609 158.042 14.3082C158.668 13.9555 159.374 13.7787 160.088 13.7957V16.9272H159.314C158.562 16.8697 157.816 17.1064 157.229 17.5891C156.965 17.9058 156.766 18.2743 156.646 18.672C156.526 19.0698 156.487 19.4884 156.531 19.902V25.7875H153.6V13.9594H156.532L156.528 15.8027ZM168.918 25.7875L164.981 20.7489V25.7875H162.05V9.98828H164.981V18.9767L168.876 13.9594H172.694L167.578 19.8948L172.73 25.7875H168.918ZM185.063 19.6172C185.066 20.0032 185.038 20.3888 184.979 20.7701H176.499C176.525 21.5289 176.837 22.248 177.371 22.7772C177.89 23.262 178.573 23.5221 179.277 23.5026C179.76 23.5326 180.241 23.4125 180.656 23.1583C181.071 22.904 181.401 22.5275 181.601 22.0784H184.771C184.448 23.2021 183.774 24.1877 182.852 24.8859C181.841 25.6381 180.613 26.0251 179.362 25.9855C178.307 26.0034 177.266 25.7397 176.342 25.2207C175.462 24.7238 174.741 23.9789 174.265 23.0751C173.755 22.089 173.499 20.9871 173.522 19.8726C173.497 18.7524 173.75 17.6439 174.255 16.6487C174.72 15.7481 175.433 15.0059 176.307 14.5137C177.234 14.0263 178.262 13.7702 179.306 13.7665C180.349 13.7628 181.379 14.0116 182.31 14.4925C183.169 14.963 183.875 15.6791 184.341 16.5528C184.835 17.4941 185.084 18.5492 185.063 19.6167L185.063 19.6172ZM182.027 18.7631C182.033 18.4129 181.963 18.0656 181.822 17.7463C181.68 17.427 181.471 17.1435 181.21 16.9164C180.666 16.449 179.973 16.202 179.263 16.2226C178.591 16.2016 177.936 16.4406 177.43 16.8915C176.914 17.3807 176.59 18.0448 176.519 18.7597L182.027 18.7631ZM190.612 16.4145V22.1367C190.598 22.293 190.616 22.4505 190.664 22.5994C190.713 22.7482 190.792 22.8852 190.895 23.0014C191.17 23.206 191.509 23.3009 191.848 23.2684H193.21V25.7875H191.367C190.871 25.867 190.365 25.8279 189.887 25.6732C189.409 25.5184 188.973 25.2524 188.613 24.8961C188.253 24.5398 187.98 24.103 187.815 23.6203C187.649 23.1377 187.596 22.6224 187.66 22.1152V16.4219H186.279V13.9666H187.661V11.0345H190.614V13.9594H193.21V16.4147L190.612 16.4145Z" fill="#143040"/>
<defs>
<linearGradient id="paint0_linear" x1="42.2223" y1="0.988281" x2="42.2223" y2="28.7326" gradientUnits="userSpaceOnUse">
<stop stop-color="#0088FF"/>
<stop offset="1" stop-color="#00A3FF"/>
</linearGradient>
<linearGradient id="paint1_linear" x1="15.6001" y1="27.6662" x2="15.6001" y2="6.08472" gradientUnits="userSpaceOnUse">
<stop stop-color="#0088FF"/>
<stop offset="1" stop-color="#00A3FF" stop-opacity="0.74"/>
</linearGradient>
</defs>
</svg>
