<svg width="131" height="74" viewBox="0 0 131 74" fill="none" xmlns="http://www.w3.org/2000/svg">
<path d="M69.0755 63.6745C67.5864 63.6745 66.1236 63.2863 64.8347 62.5492C63.5457 61.812 62.4761 60.7519 61.7337 59.4758C60.9914 58.1997 60.6025 56.7526 60.6062 55.2805C60.61 53.8084 61.0063 52.3633 61.7551 51.0909L90.1655 4.67702C90.9103 3.40911 91.9788 2.35678 93.2641 1.62529C94.5494 0.893793 96.0065 0.508789 97.4896 0.508789C98.9727 0.508789 100.43 0.893793 101.715 1.62529C103.001 2.35678 104.069 3.40911 104.814 4.67702L129.518 51.0909C130.267 52.3636 130.663 53.809 130.667 55.2815C130.67 56.7539 130.281 58.2012 129.538 59.4775C128.796 60.7537 127.725 61.8137 126.436 62.5506C125.146 63.2875 123.683 63.6752 122.194 63.6745H69.0755Z" fill="url(#paint0_linear)"/>
<path d="M29.5593 69.1947L1.14894 23.0446C0.400054 21.7721 0.00376226 20.327 2.66566e-05 18.8548C-0.00370895 17.3827 0.385244 15.9356 1.12767 14.6594C1.87009 13.3833 2.93974 12.3232 4.22876 11.5861C5.51778 10.849 6.98061 10.4609 8.46975 10.4609H61.5862C63.0753 10.461 64.538 10.8491 65.827 11.5863C67.1159 12.3234 68.1855 13.3835 68.9279 14.6596C69.6702 15.9358 70.0592 17.3828 70.0554 18.8549C70.0516 20.327 69.6554 21.7721 68.9065 23.0446L44.2 69.1947C43.4552 70.4626 42.3867 71.5149 41.1013 72.2464C39.816 72.9779 38.3589 73.3629 36.8758 73.3629C35.3927 73.3629 33.9356 72.9779 32.6503 72.2464C31.3649 71.5149 30.2964 70.4626 29.5517 69.1947H29.5593Z" fill="url(#paint1_linear)"/>
<defs>
<linearGradient id="paint0_linear" x1="95.6365" y1="0.508789" x2="95.6365" y2="63.6745" gradientUnits="userSpaceOnUse">
<stop stop-color="#0088FF"/>
<stop offset="1" stop-color="#00A3FF"/>
</linearGradient>
<linearGradient id="paint1_linear" x1="35.0277" y1="61.2459" x2="35.0277" y2="12.1112" gradientUnits="userSpaceOnUse">
<stop stop-color="#0088FF"/>
<stop offset="1" stop-color="#00A3FF" stop-opacity="0.74"/>
</linearGradient>
</defs>
</svg>
